PathFileType	4	(X/Y/Z)	C:\Users\Basilio\Documents\Thesis Gigler\squatting_fais\c3dfiles\039\SLS_pre_back3\markers_experimental.trc
DataRate	CameraRate	NumFrames	NumMarkers	Units	OrigDataRate	OrigDataStartFrame	OrigNumFrames
200.000000	200.000000	4	64	mm	200.000000	1087	2175
Frame#	Time	FHD			LBHD			RBHD			C7			T10			CLAV			LSHO			LUUPA			LMUPA			LDUPA			LLEP			LMEP			LRAD			LUL			LRFIN			RSHO			RUPA1			RMUPA			RDUPA			RLEP			RMEP			RRAD			RUL			RUFIN			LASI			RASI			USACR			LSACR			RSACR			LTHI1			LTHI2			LTHI3			LTHI4			LLFC			LMFC			LTIB1			LTIB2			LTIB3			LTIB4			LLMAL			LMMAL			LHEE			LMT1			LMT2			LMT5			RTHI			RTHI2			RTHI3			RTHI4			RLFC			RMFC			RTIB1			RTIB2			RTIB3			RTIB4			RLMAL			RMMAL			RHEE			RMT1			RMT2			RMT5			*61			*62			*63			
		X1	Y1	Z1	X2	Y2	Z2	X3	Y3	Z3	X4	Y4	Z4	X5	Y5	Z5	X6	Y6	Z6	X7	Y7	Z7	X8	Y8	Z8	X9	Y9	Z9	X10	Y10	Z10	X11	Y11	Z11	X12	Y12	Z12	X13	Y13	Z13	X14	Y14	Z14	X15	Y15	Z15	X16	Y16	Z16	X17	Y17	Z17	X18	Y18	Z18	X19	Y19	Z19	X20	Y20	Z20	X21	Y21	Z21	X22	Y22	Z22	X23	Y23	Z23	X24	Y24	Z24	X25	Y25	Z25	X26	Y26	Z26	X27	Y27	Z27	X28	Y28	Z28	X29	Y29	Z29	X30	Y30	Z30	X31	Y31	Z31	X32	Y32	Z32	X33	Y33	Z33	X34	Y34	Z34	X35	Y35	Z35	X36	Y36	Z36	X37	Y37	Z37	X38	Y38	Z38	X39	Y39	Z39	X40	Y40	Z40	X41	Y41	Z41	X42	Y42	Z42	X43	Y43	Z43	X44	Y44	Z44	X45	Y45	Z45	X46	Y46	Z46	X47	Y47	Z47	X48	Y48	Z48	X49	Y49	Z49	X50	Y50	Z50	X51	Y51	Z51	X52	Y52	Z52	X53	Y53	Z53	X54	Y54	Z54	X55	Y55	Z55	X56	Y56	Z56	X57	Y57	Z57	X58	Y58	Z58	X59	Y59	Z59	X60	Y60	Z60	X61	Y61	Z61	X62	Y62	Z62	X63	Y63	Z63	X64	Y64	Z64	

1088	5.435	-176.7417602539063	1575.136352539063	-636.7175292968751	-341.8914489746094	1562.110595703125	-751.2610473632814	-308.1073913574219	1560.756469726563	-613.6331787109376	-388.8739624023439	1400.817626953125	-699.5825195312501	-461.9777221679689	1118.138916015625	-767.0585327148439	nan	nan	nan	-315.4143371582032	1423.95361328125	-854.598571777344	-160.0498352050782	1397.480590820313	-982.6936645507815	-134.2031860351563	1426.370239257813	-951.246765136719	-90.95110321044923	1407.0966796875	-987.357116699219	-23.25132751464844	1414.107055664063	-986.2923583984377	-17.59627723693848	1340.05419921875	-961.105407714844	257.1505737304688	1436.339721679688	-899.7882080078127	256.0119628906251	1451.94873046875	-974.1311035156252	332.0063781738282	1481.2802734375	-888.0291748046877	-273.3921813964844	1389.83740234375	-550.3963012695314	-111.5787887573242	1321.67626953125	-457.2974243164064	-86.39891052246095	1358.534423828125	-479.8143005371095	-42.34859085083009	1323.146240234375	-459.6596069335939	19.53905677795411	1342.037841796875	-470.1495666503907	27.78784179687501	1278.89453125	-515.0263671875001	301.3849487304688	1412.37353515625	-555.8591918945314	305.8575744628907	1396.422485351563	-481.7379150390626	379.3907470703126	1459.911865234375	-550.4710693359376	-359.4667358398438	901.3692626953127	-881.4876708984377	-362.7403869628907	909.8522949218752	-659.0079956054689	-524.2686767578126	996.6863403320315	-775.6990356445315	-536.2410888671876	964.5897216796877	-800.6621093750002	-537.1201782226564	969.0327148437502	-741.7290039062501	-407.3635559082032	660.7182006835939	-1010.191650390625	-360.7538146972657	594.7114868164064	-1040.24560546875	-313.5933532714844	601.2744750976564	-1035.81689453125	-376.6391906738282	534.2560424804689	-1036.948120117188	-359.6060485839844	450.7386169433595	-1047.470825195313	-322.6305541992188	389.0905761718751	-953.2375488281252	-446.270233154297	343.2632446289063	-1027.889770507813	-505.6234130859376	407.4673461914064	-1028.207397460938	-501.2286682128907	364.8874206542969	-1032.438720703125	-562.8607788085939	334.5632019042969	-977.2036743164065	-741.4529418945314	362.6284790039063	-948.5422973632815	-711.8179931640626	321.9621276855469	-877.1277465820315	-736.5824584960939	423.6840820312501	-889.1113891601565	-823.6245117187502	208.4862518310547	-861.7608642578127	-846.2008056640627	220.1963500976563	-895.8120117187502	-876.8399658203127	280.2255554199219	-921.0703125000002	-307.6231079101563	683.2720336914064	-586.2249145507814	-243.8458709716797	661.8246459960939	-583.9875488281251	-218.3204193115235	683.4187622070314	-589.1160888671876	-219.6263122558594	581.0055541992189	-594.4979858398439	-185.6985168457032	469.328338623047	-632.4033203125001	-154.6703796386719	482.4046325683595	-740.2991943359376	-211.5170288085938	279.4296264648438	-692.5643310546876	-313.7515258789063	245.1808166503907	-691.3140869140626	-273.1260681152344	223.9242401123047	-699.1716918945314	-273.2489318847657	179.0402069091797	-739.6612548828126	-366.6469726562501	111.7074127197266	-734.2903442382814	-334.0959472656251	139.0099639892578	-814.4711914062502	-440.4050903320314	97.88273620605472	-790.5490722656252	-214.6665496826172	58.69734191894533	-803.6890869140627	-218.9174194335938	57.08771896362306	-757.8789672851564	-274.1738891601563	33.77280426025391	-708.7327880859376	nan	nan	nan	nan	nan	nan	nan	nan	nan	
1089	5.44	-176.8502349853516	1574.684814453125	-636.2486572265626	-341.5599670410157	1561.666015625	-751.0083007812501	-308.1666564941407	1560.25537109375	-613.2830810546876	-388.7785949707032	1400.425415039063	-699.5095825195314	-462.0149230957032	1117.929565429688	-767.3186645507814	nan	nan	nan	-315.0548095703126	1423.673461914063	-854.5989990234377	-159.7604217529297	1397.510009765625	-982.6223754882815	-133.9477844238282	1426.13525390625	-951.1093750000002	-90.63562011718751	1406.936279296875	-987.2982177734377	-22.36904335021973	1413.580200195313	-986.3000488281252	-17.25951004028321	1339.828491210938	-961.1136474609377	257.2731018066407	1436.172729492188	-899.688903808594	256.2926025390626	1451.576171875	-973.9346313476565	332.3717956542969	1480.917724609375	-887.7298583984377	-273.3176879882813	1389.286499023438	-550.2438964843751	-111.6751708984375	1321.10009765625	-457.0616455078126	-86.50136566162111	1358.019287109375	-479.7182922363282	-42.33843994140626	1322.290283203125	-459.6101684570314	19.56777381896973	1341.435424804688	-470.1036682128907	27.81606101989747	1278.38134765625	-514.9996337890626	301.3433837890626	1411.851806640625	-555.6597900390626	305.9581604003907	1395.841552734375	-481.5158996582032	379.0880126953126	1459.529663085938	-549.7980957031251	-359.7542724609376	901.1674804687502	-881.592956542969	-363.0522460937501	909.773132324219	-659.0436401367189	-524.4447631835939	996.467712402344	-775.9855957031252	-536.3281860351564	964.4143066406252	-800.9046630859377	-537.2994384765626	968.8642578125002	-741.9310913085939	-407.5689697265626	660.1177978515626	-1010.427856445313	-360.8804321289063	594.6664428710939	-1040.519775390625	-313.6774291992188	601.2463989257814	-1036.153198242188	-376.6089782714844	534.2550659179689	-1037.249877929688	-359.7486267089844	450.715057373047	-1047.96435546875	-322.9026184082032	388.3552551269532	-953.650329589844	-446.3416137695314	343.1300354003907	-1028.642822265625	-505.6491088867189	407.4031677246095	-1028.914794921875	-501.149383544922	364.8065795898438	-1033.016479492188	-562.7969970703126	334.3219909667969	-978.1495361328127	-741.4604492187501	362.3045349121094	-949.490905761719	-712.0482177734376	321.8256530761719	-877.7547607421877	-736.8546142578126	422.9393005371095	-889.977722167969	-823.8481445312502	207.9371185302735	-862.9658813476565	-846.5045166015627	219.4642181396485	-898.459411621094	-876.831481933594	279.7645263671876	-922.5244140625002	-307.9883422851563	683.2786865234376	-586.1306152343751	-244.0300598144532	661.7410888671876	-583.8477172851564	-218.7459259033204	683.5361328125001	-588.9273681640626	-220.002182006836	581.0334472656251	-594.2980346679689	-186.1439819335938	469.0852966308595	-632.3485717773439	-154.7364044189453	482.4013061523439	-740.1347045898439	-211.649642944336	279.4952697753907	-692.3795166015626	-313.8457031250001	245.1458282470704	-691.2304687500001	-273.1616821289063	223.947494506836	-699.0706176757814	-273.3243408203126	179.1107940673828	-739.6294555664064	-366.6786193847657	111.6666641235352	-734.3023071289064	-334.1255798339844	139.008544921875	-814.3972167968752	-440.3874511718751	97.90790557861331	-790.542419433594	-214.6294555664063	58.66612243652345	-803.6094360351565	-218.8982086181641	57.13716888427736	-757.8068237304689	-274.2032470703126	33.81046676635743	-708.6795043945314	nan	nan	nan	nan	nan	nan	nan	nan	nan	
1090	5.445	-176.8512725830078	1574.421142578125	-635.8991699218751	-341.5146179199219	1561.278930664063	-750.7157592773439	-308.2380676269532	1559.744873046875	-612.8596801757814	-388.7330932617189	1400.072021484375	-699.3426513671876	-461.9653625488282	1117.783447265625	-767.5877075195314	nan	nan	nan	-314.7361450195313	1423.416870117188	-854.4824829101565	-159.5139923095703	1397.410522460938	-982.5659179687502	-133.6400451660157	1425.950561523438	-950.9761352539065	-90.40700531005861	1406.840576171875	-987.2119140625002	-22.13277053833008	1413.516357421875	-986.2730712890627	-17.05363082885743	1339.690063476563	-961.1967773437502	257.5181884765626	1435.833374023438	-899.5791625976565	256.7143859863282	1451.372314453125	-973.811218261719	332.5861511230469	1480.507690429688	-887.4893798828127	-273.3193359375001	1388.761962890625	-550.1180419921876	-111.656494140625	1320.458374023438	-456.9905395507814	-86.48597717285158	1357.58984375	-479.640350341797	-42.30935287475587	1321.901611328125	-459.666229248047	19.60476112365723	1340.83935546875	-469.9473266601564	27.8542652130127	1278.00390625	-514.9176025390626	301.5152282714844	1411.36865234375	-555.4338989257814	306.0145874023438	1395.44140625	-481.2388000488282	379.2722167968751	1458.962280273438	-549.7074584960939	-360.0404357910157	900.9437255859377	-881.6865844726565	-363.3792114257813	909.6464843750002	-659.2216186523439	-524.6912841796876	996.3904418945315	-776.301452636719	-536.5702514648439	964.273132324219	-801.2363891601565	-537.4711303710939	968.6239013671877	-742.1160278320314	-407.7462158203126	660.0269775390626	-1010.606689453125	-360.9951171875001	594.6310424804689	-1040.806396484375	-313.7739257812501	601.2082519531251	-1036.458618164063	-377.3120422363282	534.1918334960939	-1037.864990234375	-359.7778930664063	450.7713317871095	-1048.513549804688	-322.7292785644532	388.7004394531251	-954.090515136719	-446.2653198242189	343.0429077148438	-1029.365356445313	-505.5310974121095	407.2409667968751	-1029.525634765625	-501.0213012695314	364.6576232910157	-1033.815673828125	-562.8711547851564	334.0900573730469	-978.9155273437502	-741.4819946289064	361.8406677246094	-950.477478027344	-712.1477661132814	321.1033630371094	-878.9671020507815	-737.0380859375001	422.4663085937501	-890.7042236328127	-823.8171997070315	207.3623809814454	-864.378112792969	-847.0816650390627	219.795394897461	-899.6296997070315	-876.6461181640627	279.1286010742188	-923.841735839844	-308.2236022949219	683.2860107421876	-586.0485229492189	-244.3384857177735	661.7471313476564	-583.7383422851564	-219.1204986572266	683.4996337890626	-588.8200683593751	-220.2734832763672	581.0935058593751	-594.1357421875001	-186.1399230957032	469.3616333007814	-631.9049682617189	-154.9014129638672	482.3937072753907	-739.9143676757814	-211.7701110839844	279.4270019531251	-692.2048950195314	-313.9515991210938	245.1524658203126	-691.0341796875001	-273.2721862792969	223.9566650390626	-698.9226684570314	-273.3918762207032	179.091796875	-739.5703735351564	-366.7185363769532	111.6663436889649	-734.2800292968751	-334.1277770996094	139.0140991210938	-814.2898559570315	-440.4235839843751	97.95121765136722	-790.502624511719	-214.6251373291016	58.67933273315431	-803.5508422851565	-218.9181365966797	57.13205337524415	-757.7697143554689	-274.1954956054688	33.74923324584962	-708.6494750976564	nan	nan	nan	nan	nan	nan	nan	nan	nan	
1091	5.45	-176.7437591552735	1574.023803710938	-635.5964965820314	-341.6546630859376	1560.809692382813	-750.1940307617189	-308.2328186035157	1559.091064453125	-612.3151245117189	-388.6459960937501	1399.748046875	-699.2126464843751	-461.9297485351564	1117.6279296875	-767.8520507812501	nan	nan	nan	-314.4408874511719	1423.162231445313	-854.365661621094	-159.1699371337891	1397.415771484375	-982.495788574219	-133.3578186035157	1425.782470703125	-950.9505004882815	-90.07160949707033	1406.662109375	-987.1137695312502	-21.85906600952149	1413.308471679688	-986.2683715820315	-16.77023124694825	1339.514526367188	-961.2816162109377	257.8830261230469	1435.24267578125	-899.3816528320315	256.9546508789063	1451.031005859375	-973.6104125976565	332.5104675292969	1479.792602539063	-887.565124511719	-273.1860046386719	1388.343872070313	-550.0690917968751	-111.5162582397461	1319.907348632813	-457.0273437500001	-86.2437210083008	1357.38037109375	-479.1487121582032	-42.15346908569337	1321.467651367188	-459.5220947265626	19.63500785827637	1340.315795898438	-469.8421936035157	27.74826431274415	1277.488037109375	-515.1738281250001	301.5881042480469	1410.930786132813	-555.2753295898439	306.0831298828126	1394.926513671875	-481.0499572753907	379.4418029785157	1458.507080078125	-549.5708618164064	-360.3334350585938	900.6755371093752	-881.8242187500002	-363.8008728027344	909.4903564453127	-659.4818725585939	-524.9874267578126	996.230163574219	-776.479919433594	-536.7994384765626	964.0405273437502	-801.5145263671877	-537.7172241210939	968.478698730469	-742.3790283203126	-407.9056396484376	659.9785766601564	-1010.782958984375	-361.1399536132813	594.6123657226564	-1041.112548828125	-313.8942871093751	601.2889404296876	-1036.76806640625	-377.3552246093751	534.1640014648439	-1038.2138671875	-359.7237854003907	450.7695312500001	-1048.872192382813	-322.7939147949219	388.4623107910157	-954.7894287109377	-445.9352111816407	342.2692260742188	-1029.725708007813	-505.564666748047	407.1515502929689	-1030.20263671875	-500.5911254882814	364.3750305175782	-1034.675048828125	-563.0310668945314	333.7318115234376	-980.0388183593752	-741.4758300781251	361.3887939453126	-951.4085083007815	-711.9830322265626	319.9667968750001	-879.9005126953127	-737.1253051757814	421.7897033691407	-891.5090942382815	-824.0461425781252	206.5518493652344	-866.1167602539065	-846.9463500976565	219.0470886230469	-901.2268066406252	-876.8170166015627	278.9154968261719	-925.3101806640627	-308.4657592773438	683.2322387695314	-586.0851440429689	-244.480697631836	662.0903320312501	-583.3723754882814	-219.4294433593751	683.4663696289064	-588.7116699218751	-220.5386199951172	581.0994873046876	-594.0265502929689	-186.3448333740235	469.3023071289064	-631.6802978515626	-154.9431304931641	482.3492431640626	-739.6925048828126	-211.8509674072266	279.4432678222657	-691.8341064453126	-314.0265808105469	245.1438751220704	-690.9794921875001	-273.2850341796876	223.9324798583985	-698.8108520507814	-273.4970397949219	179.156982421875	-739.5360107421876	-366.7527160644532	111.6535720825196	-734.2839355468751	-334.1761169433594	139.0157623291016	-814.2307739257815	-440.4331054687501	97.97147369384768	-790.4525146484377	-214.6366577148438	58.77991104125978	-803.4722290039065	-218.925277709961	57.16257858276369	-757.7485961914064	-274.2288818359376	33.71176147460938	-708.6264648437501	nan	nan	nan	nan	nan	nan	nan	nan	nan	
